<svg xmlns="http://www.w3.org/2000/svg" width="256" height="256"><path fill-opacity=".016" d="M0 128.004v128.004l128.25-.254 128.25-.254.254-127.75L257.008 0H0v128.004m.485.496c0 70.4.119 99.053.265 63.672.146-35.38.146-92.98 0-128C.604 29.153.485 58.1.485 128.5" fill="#1976D2" fill-rule="evenodd"/><path fill-opacity=".239" d="M11 21.881c0 .485 4.066 18.597 9.037 40.25l9.036 39.369-3.01 9.098c-1.655 5.004-3.309 11.641-3.674 14.75-.365 3.108-.818 5.652-1.007 5.652-.188 0-4.86-1.8-10.382-4-5.522-2.2-10.256-4-10.52-4-.264 0-.48 1.924-.48 4.275v4.275l10.407 3.975 10.406 3.975.655 6.5c.36 3.575.883 7.291 1.163 8.258.473 1.633-.321 1.711-11.061 1.098L0 154.695V164h24.664l2.569 6.475 2.569 6.475-14.898 5.775L.007 188.5l-.004 4.25c-.001 2.338.189 4.25.424 4.25s7.323-2.704 15.75-6.009c8.428-3.305 15.819-6.118 16.425-6.25.607-.133 3.938 3.519 7.404 8.114 14.457 19.168 37.399 33.449 63.188 39.332 13.067 2.981 36.438 3.007 49.365.054 28.92-6.605 53.372-23.076 68.464-46.117l1.522-2.325 16.03 6.101c8.816 3.355 16.569 6.1 17.227 6.1.753 0 1.198-1.671 1.198-4.5 0-2.928-.436-4.5-1.247-4.5-1.141 0-27.782-9.843-28.613-10.572-.198-.173.697-3.266 1.991-6.872l2.351-6.556H257l.002-4.25.002-4.25-11.589.5c-6.374.275-11.683.405-11.796.289-.114-.116.204-3.744.707-8.063l.915-7.852 10.129-3.82c5.572-2.101 10.496-4.149 10.944-4.551.448-.402.673-2.532.5-4.733l-.314-4.001-10.995 4.245-10.994 4.245-1.22-7.221c-.671-3.971-2.391-10.469-3.824-14.44l-2.604-7.219 9.167-40.008c5.041-22.005 8.924-40.25 8.629-40.545-.295-.295-18.763 5.541-41.041 12.969l-40.504 13.506-7.307-2.087c-6.339-1.811-10.022-2.087-27.807-2.087-17.787 0-21.467.276-27.81 2.088l-7.309 2.088-40.177-13.402C30.607 27.031 12.184 21 11.764 21c-.42 0-.764.397-.764.881m60.312 67.086c-11.196 5.658-17.285 15.373-17.302 27.605-.013 9.264 2.15 15.277 7.724 21.478 6.148 6.837 12.868 10.142 21.766 10.705 8.962.566 17.741-2.387 19.984-6.724.8-1.548 2.765-3.271 4.366-3.829 2.142-.747 3.67-2.559 5.781-6.858 2.475-5.042 2.869-7.01 2.869-14.344 0-9.9-2.302-15.802-8.631-22.131-6.218-6.218-11.08-8.183-21.369-8.634-8.485-.373-9.354-.216-15.188 2.732m88.386-1.523c-17.641 6.292-25.699 26.77-17.294 43.949 2.084 4.259 3.606 6.063 5.746 6.809 1.601.558 3.566 2.281 4.366 3.829 2.243 4.337 11.022 7.29 19.984 6.724 8.898-.563 15.618-3.868 21.766-10.705 5.584-6.212 7.734-12.207 7.734-21.568 0-12.435-6.691-22.635-18.435-28.104-5.907-2.751-17.502-3.204-23.867-.934M76.5 97.424c-3.796 1.703-10.054 8.208-11.44 11.891-1.723 4.576-1.284 13.326.881 17.57 4.267 8.364 12.412 12.771 21.811 11.801 10.253-1.058 17.876-8.681 18.934-18.934.688-6.664-.836-11.714-4.947-16.397-3.455-3.934-9.543-7.374-12.949-7.316-1.984.034-1.866.224.881 1.419 3.743 1.628 5.529 4.548 5.529 9.042 0 4.382-1.635 7.157-5.351 9.078-6.132 3.171-13.405-.704-14.423-7.685-.651-4.461 1.292-7.987 5.588-10.141 3.17-1.59 3.259-1.745.986-1.711-1.375.02-3.85.643-5.5 1.383m85 .235c-13.735 7.228-16.746 24.157-6.175 34.712 10.846 10.83 27.771 8.023 34.87-5.784 2.956-5.749 2.26-15.891-1.454-21.209-3.461-4.955-8.442-8.314-13.365-9.013l-3.876-.55 3.486 1.843c4.315 2.28 6.235 5.798 5.588 10.235-1.018 6.981-8.291 10.856-14.423 7.685-3.716-1.921-5.351-4.696-5.351-9.078 0-4.494 1.786-7.414 5.529-9.042 2.97-1.292 3.013-1.38.671-1.379-1.375.001-3.85.712-5.5 1.58M.286 127.5c.008 2.75.202 3.756.432 2.236.229-1.52.223-3.77-.014-5-.237-1.23-.425.014-.418 2.764m0 32c.008 2.75.202 3.756.432 2.236.229-1.52.223-3.77-.014-5-.237-1.23-.425.014-.418 2.764m0 33c.008 2.75.202 3.756.432 2.236.229-1.52.223-3.77-.014-5-.237-1.23-.425.014-.418 2.764" fill="#1976D2" fill-rule="evenodd"/><path fill-opacity=".141" d="M11.437 22.813c.292.928 4.548 19.147 9.457 40.487l8.925 38.801-2.375 5.845c-1.306 3.215-3.136 9.717-4.066 14.45-.93 4.732-2.038 8.604-2.464 8.604-.425 0-5.329-1.776-10.898-3.946L-.11 123.108l.305 4.081.305 4.081 9.951 3.866c5.473 2.126 10.255 4.203 10.626 4.615.372.412.975 4.236 1.341 8.499l.665 7.75H0v6.94l12.62.28 12.62.28 2.508 6.789c1.379 3.734 2.338 6.913 2.13 7.065-.208.152-6.903 2.77-14.878 5.817L.5 188.713l-.305 4.089-.305 4.09 10.305-4.038c23.038-9.028 23.968-9.313 24.903-7.644 2.671 4.774 10.924 14.549 17.147 20.31 12.687 11.747 28.373 20.059 47.681 25.267 8.67 2.339 11.321 2.582 28.074 2.582s19.404-.243 28.074-2.582c20.836-5.62 36.513-14.311 50.036-27.738 4.736-4.702 10.274-11.079 12.307-14.172l3.697-5.622 15.193 5.73c21.703 8.186 19.693 7.859 19.693 3.204v-3.946l-15.25-5.705c-8.387-3.138-15.368-5.823-15.512-5.967-.145-.144.82-3.144 2.142-6.667l2.406-6.404 12.857-.5 12.857-.5.297-3.5.298-3.5-12.192.311-12.192.311.645-4.701c.354-2.585.644-6.362.644-8.392v-3.693l10.25-3.83c5.637-2.106 10.813-4.262 11.5-4.79.688-.529 1.25-2.638 1.25-4.687v-3.727l-10.75 4.336c-5.912 2.385-11.067 4.342-11.455 4.349-.387.007-.968-1.674-1.291-3.737-.972-6.221-3.718-16.493-5.587-20.899l-1.759-4.149 8.937-38.851c4.915-21.368 9.176-39.61 9.468-40.538.408-1.295-8.835 1.455-39.766 11.832L164.5 48.163 159 47.01c-24.497-5.134-37.503-5.134-62 0l-5.5 1.153-40.297-13.518C20.272 24.268 11.029 21.518 11.437 22.813m20.869 21.273c.334 1.328 3.127 13.428 6.209 26.889l5.603 24.475-4.002 8.525c-4.954 10.553-7.154 18.157-7.415 25.627l-.201 5.753 31.25 12.019c17.188 6.61 31.25 12.312 31.25 12.67 0 .358-5.196 2.596-11.546 4.973-10.338 3.87-15.592 6.657-10.933 5.8 1.302-.24 2.013.815 2.92 4.334 2.188 8.485 7.388 13.741 15.827 15.998 9.013 2.411 18.961-2.321 23.482-11.169 1.776-3.476 2.25-6.08 2.25-12.366v-7.963l-7.005-7.224c-6.103-6.294-6.895-7.527-6.146-9.576 1.557-4.258 4.38-4.822 24.151-4.822s22.594.564 24.151 4.822c.749 2.049-.043 3.282-6.146 9.576L139 159.651v7.963c0 6.286.474 8.89 2.25 12.366 4.521 8.848 14.469 13.58 23.482 11.169 8.435-2.256 13.632-7.506 15.833-15.998 1.041-4.015 1.527-4.613 3.549-4.372 4.267.507.608-1.383-11.364-5.873-6.462-2.423-11.749-4.65-11.75-4.949 0-.299 14.063-6.01 31.25-12.692l31.25-12.148-.123-4.809c-.182-7.09-2.906-16.699-7.467-26.341l-4.036-8.533 6.059-26.388c3.332-14.514 5.918-26.528 5.747-26.7-.172-.171-12.563 3.776-27.536 8.77l-27.225 9.082-9.209-2.612c-12.677-3.595-19.468-4.574-31.71-4.574-12.241 0-19.033.979-31.706 4.573l-9.206 2.611-26.294-8.745c-14.462-4.81-26.924-8.978-27.694-9.263-1.047-.387-1.247.091-.794 1.898M76.5 97.896c-15.175 7.026-16.935 27.483-3.166 36.797 9.229 6.242 18.94 5.318 26.809-2.55 7.527-7.527 8.691-16.631 3.301-25.828-2.587-4.415-6.288-7.546-11.063-9.359L89.5 95.863l3 3.134c2.428 2.537 3 3.996 3 7.651 0 3.837-.491 4.955-3.266 7.434-4.67 4.173-9.342 4.01-13.834-.482-4.919-4.919-4.524-11.16.997-15.775 2.684-2.244 2.07-2.229-2.897.071m84.407.411c-5.371 2.812-10.54 10.061-11.437 16.042-1.007 6.714 1.057 12.464 6.387 17.794 7.695 7.695 17.186 8.752 26.357 2.936 14.513-9.204 12.338-31.208-3.714-37.561-3.896-1.541-3.945-1.535-1.897.241 5.53 4.795 5.915 10.923.997 15.841-4.492 4.492-9.164 4.655-13.834.482-2.775-2.479-3.266-3.597-3.266-7.434 0-3.634.574-5.115 2.937-7.582 3.52-3.675 3.215-3.766-2.53-.759M.272 127c0 2.475.195 3.488.434 2.25.238-1.238.238-3.263 0-4.5-.239-1.237-.434-.225-.434 2.25m32.188 21.1c1.332 8.541.053 7.9 15.774 7.9 7.755 0 13.897-.203 13.649-.45-.248-.248-6.285-2.688-13.417-5.422-7.131-2.735-13.804-5.3-14.829-5.701-1.702-.665-1.804-.347-1.177 3.673m176.23 1.35c-7.595 2.935-14.083 5.609-14.416 5.943-.334.334 5.737.607 13.492.607 15.697 0 14.448.615 15.749-7.75.363-2.338.284-4.224-.177-4.193-.461.032-7.052 2.459-14.648 5.393M.252 159.5c.011 2.2.216 2.982.455 1.738.239-1.244.23-3.044-.02-4s-.446.062-.435 2.262m192.831 3.916c.682.681 21.33 8.573 22.417 8.568 1.185-.005 4.551-7.6 3.731-8.419-.31-.311-6.414-.565-13.564-.565s-12.813.187-12.584.416m-155.189 4.596c.988 2.206 1.994 4.209 2.236 4.452.243.242 5.6-1.547 11.905-3.976l11.465-4.416-13.701-.036L36.098 164l1.796 4.012m153.685 8.219c-1.498 9.368-9.823 19.702-19.403 24.087-6.498 2.975-17.854 2.975-24.352 0C139.295 196.414 129 184.5 129 178.533c0-.843-.45-1.533-1-1.533s-1 .69-1 1.533c0 5.967-10.295 17.881-18.824 21.785-6.498 2.975-17.854 2.975-24.352 0-9.39-4.298-17.61-14.332-19.353-23.623-.382-2.032-.981-3.693-1.332-3.69-1.228.008-16.647 6.187-17.523 7.021-2.045 1.948 13.491 18.909 23.706 25.879 7.379 5.035 22.581 11.896 31.324 14.137 35.121 9.001 72.228.182 96.724-22.989 6.838-6.467 14.997-16.708 13.868-17.406-.428-.264-4.885-2.027-9.904-3.916l-9.126-3.434-.629 3.934M.272 193c0 2.475.195 3.488.434 2.25.238-1.238.238-3.262 0-4.5-.239-1.238-.434-.225-.434 2.25" fill="#1976D2" fill-rule="evenodd"/><path fill-opacity=".646" d="M74.264 99.558c-7.572 4.538-11.623 14.68-9.305 23.291 1.343 4.985 6.659 11.268 11.466 13.548 4.672 2.218 13.745 2.069 18.365-.3 8.056-4.131 11.578-10.576 11.035-20.193-.326-5.768-.846-7.365-3.447-10.598-3.234-4.017-8.921-8.36-10.776-8.227-.629.045-.557.298.169.59 1.814.73 4.229 5.773 4.229 8.831 0 11.906-16.025 14.866-20.643 3.812-1.623-3.885-.779-8.083 2.31-11.497 2.171-2.398 1.647-2.284-3.403.743m85.727-.308c-1.818 1.237-4.684 3.963-6.369 6.056-2.601 3.233-3.121 4.83-3.447 10.598-.543 9.617 2.979 16.062 11.035 20.193 4.62 2.369 13.693 2.518 18.365.3 4.797-2.276 10.123-8.56 11.458-13.519 2.417-8.977-1.991-19.345-10.118-23.795-3.976-2.178-4.238-2.216-2.635-.388 8.258 9.414-1.95 23.101-12.87 17.257-3.028-1.621-5.41-5.782-5.41-9.452 0-3.058 2.415-8.101 4.229-8.831.726-.292.798-.545.169-.59-.606-.043-2.59.934-4.407 2.171m-54.42 41.321c-.864.865-1.56 2.327-1.547 3.25.013.924 4.864 6.742 10.779 12.929 8.089 8.461 11.376 11.25 13.254 11.25 1.893 0 5.097-2.769 13.221-11.424 5.897-6.283 10.722-12.101 10.722-12.928 0-.828-.707-2.212-1.571-3.077C149.1 139.243 145.628 139 128 139s-21.1.243-22.429 1.571" fill="#1976D2" fill-rule="evenodd"/></svg>